<svg xmlns="http://www.w3.org/2000/svg"  viewBox="0 0 100 100" width="100px" height="100px" baseProfile="basic"><circle cx="78" cy="15" r="1" fill="#f1bc19"/><circle cx="50" cy="51" r="38" fill="#f9dbd2"/><circle cx="84" cy="17" r="4" fill="#f1bc19"/><circle cx="14" cy="27" r="2" fill="#ee3e54"/><circle cx="78" cy="78" r="2" fill="#fbcd59"/><circle cx="17" cy="79" r="4" fill="#fbcd59"/><circle cx="24" cy="84" r="2" fill="#ee3e54"/><circle cx="66.483" cy="79.517" r="2.483" fill="#fff"/><circle cx="16" cy="49" r="1" fill="#fff"/><circle cx="86" cy="32" r="1" fill="#f1bc19"/><circle cx="80" cy="67" r="2" fill="#fff"/><g><polygon fill="#f16e7c" points="43.883,37.997 49.245,43.918 51.177,40.315 74.283,70.628 51.203,24.145"/><polygon fill="#39c1d7" points="74.283,70.888 41.68,42.502 38.076,49.484"/><polygon fill="#39c1d7" points="31.795,61.719 35.398,54.287 74.097,70.962"/><polygon fill="#39c1d7" points="29.205,66.111 26.615,71.178 74.208,71.073"/><path fill="#472b29" d="M74.808,71.676c-0.113,0-0.226-0.052-0.299-0.148L67.28,61.99c-0.125-0.165-0.093-0.4,0.072-0.525 c0.164-0.125,0.4-0.093,0.525,0.072l4.804,6.338L51.169,24.701l-6.875,13.221c-0.097,0.185-0.324,0.256-0.506,0.16 c-0.184-0.095-0.256-0.322-0.16-0.505l7.215-13.875c0.064-0.125,0.193-0.202,0.333-0.202c0.001,0,0.002,0,0.003,0 c0.142,0.001,0.27,0.082,0.333,0.208l23.632,47.427c0.086,0.173,0.026,0.384-0.139,0.486 C74.944,71.658,74.876,71.676,74.808,71.676z"/><path fill="#472b29" d="M63.979,57.389c-0.113,0-0.226-0.051-0.299-0.148l-12.39-16.347l-1.692,3.291 c-0.056,0.109-0.16,0.183-0.281,0.2c-0.122,0.017-0.243-0.026-0.326-0.116l-2.616-2.804c-0.141-0.151-0.133-0.389,0.019-0.53 c0.151-0.141,0.389-0.133,0.53,0.019l2.252,2.414l1.722-3.346c0.059-0.115,0.172-0.191,0.301-0.202 c0.129-0.01,0.253,0.045,0.331,0.147l12.749,16.822c0.125,0.165,0.093,0.4-0.072,0.525C64.139,57.364,64.059,57.389,63.979,57.389 z"/><path fill="#472b29" d="M47.536,48.033c-0.087,0-0.175-0.03-0.246-0.092l-2.969-2.579 c-0.156-0.136-0.173-0.373-0.037-0.529c0.137-0.155,0.373-0.172,0.529-0.037l2.969,2.579c0.156,0.136,0.173,0.373,0.037,0.529 C47.745,47.989,47.641,48.033,47.536,48.033z"/><path fill="#472b29" d="M74.934,71.528c-0.064,0-0.13-0.017-0.189-0.051L37.695,49.854 c-0.179-0.104-0.239-0.334-0.135-0.513c0.104-0.18,0.335-0.239,0.514-0.135l33.458,19.527L49.813,50.132 c-0.157-0.135-0.176-0.371-0.041-0.529c0.135-0.158,0.371-0.175,0.529-0.041l24.876,21.305c0.147,0.126,0.174,0.344,0.062,0.502 C75.166,71.473,75.051,71.528,74.934,71.528z"/><path fill="#472b29" d="M74.758,71.676c-0.051,0-0.102-0.01-0.151-0.032l-23.92-10.518 c-0.189-0.083-0.275-0.305-0.192-0.494c0.085-0.191,0.305-0.275,0.495-0.192l23.92,10.518c0.189,0.083,0.275,0.305,0.192,0.494 C75.039,71.592,74.901,71.676,74.758,71.676z"/><path fill="#472b29" d="M48.619,60.183c-0.051,0-0.102-0.01-0.151-0.032L44.8,58.538c-0.189-0.083-0.275-0.305-0.192-0.494 c0.085-0.19,0.305-0.275,0.495-0.192l3.668,1.613c0.189,0.083,0.275,0.305,0.192,0.494C48.9,60.099,48.763,60.183,48.619,60.183z"/><path fill="#472b29" d="M55.287,67.481c-0.025,0-0.053-0.002-0.079-0.008l-23.99-5.168 c-0.114-0.025-0.211-0.102-0.261-0.208c-0.05-0.106-0.047-0.229,0.008-0.333l4.183-7.974c0.09-0.172,0.296-0.247,0.476-0.172 l4.69,1.94c0.191,0.079,0.282,0.299,0.203,0.49c-0.078,0.191-0.298,0.281-0.49,0.203l-4.374-1.809l-3.794,7.234l23.508,5.064 c0.202,0.044,0.331,0.243,0.287,0.446C55.616,67.361,55.46,67.481,55.287,67.481z"/><path fill="#472b29" d="M63.613,69.135c-0.023,0-0.049-0.002-0.073-0.007l-5.352-1.063 c-0.203-0.04-0.335-0.238-0.295-0.441c0.041-0.202,0.231-0.337,0.441-0.294l5.352,1.063c0.203,0.04,0.335,0.238,0.295,0.441 C63.945,69.011,63.789,69.135,63.613,69.135z"/><path fill="#472b29" d="M74.758,71.676c-0.015,0-0.029-0.001-0.045-0.003l-42.49-5.145 c-0.206-0.025-0.353-0.211-0.327-0.417c0.024-0.206,0.201-0.354,0.417-0.327l42.49,5.145c0.206,0.025,0.353,0.211,0.327,0.417 C75.107,71.536,74.945,71.676,74.758,71.676z"/><path fill="#472b29" d="M31.705,62.282c-0.108,0-0.22-0.025-0.323-0.08c-0.343-0.179-0.476-0.602-0.297-0.944l3.809-7.3 c0.18-0.341,0.602-0.476,0.945-0.297c0.343,0.179,0.476,0.602,0.297,0.944l-3.809,7.3C32.202,62.145,31.958,62.282,31.705,62.282z"/><path fill="#472b29" d="M38.018,49.938c-0.106,0-0.216-0.025-0.317-0.077c-0.345-0.176-0.48-0.598-0.305-0.942l3.245-6.348 c0.176-0.344,0.597-0.481,0.941-0.304c0.345,0.176,0.48,0.598,0.305,0.942l-3.245,6.348 C38.518,49.799,38.272,49.938,38.018,49.938z"/><path fill="#472b29" d="M74.758,72.001H26.395c-0.245,0-0.472-0.128-0.599-0.337s-0.135-0.47-0.021-0.687l2.732-5.229 c0.18-0.341,0.6-0.474,0.944-0.296c0.343,0.179,0.476,0.602,0.296,0.945l-2.197,4.205h46.078L51.16,25.415L44.537,38.09 c-0.179,0.342-0.599,0.476-0.944,0.296c-0.343-0.179-0.476-0.602-0.296-0.945l7.259-13.892c0.121-0.232,0.34-0.352,0.627-0.376 c0.264,0.003,0.503,0.153,0.62,0.389l23.582,47.427c0.107,0.217,0.096,0.474-0.032,0.68C75.226,71.875,75,72.001,74.758,72.001z"/></g></svg>