<!-- icon666.com - MILLIONS vector ICONS FREE --><svg id="Layer_1" viewBox="0 0 512 512" xmlns="http://www.w3.org/2000/svg" xmlns:xlink="http://www.w3.org/1999/xlink" data-name="Layer 1"><linearGradient id="linear-gradient" gradientUnits="userSpaceOnUse" x1="265.706" x2="265.706" y1="304.749" y2="53.18"><stop offset="0" stop-color="#fff"></stop><stop offset=".0855" stop-color="#fff" stop-opacity=".968"></stop><stop offset=".2192" stop-color="#fff" stop-opacity=".881"></stop><stop offset=".3843" stop-color="#fff" stop-opacity=".738"></stop><stop offset=".5745" stop-color="#fff" stop-opacity=".54"></stop><stop offset=".7859" stop-color="#fff" stop-opacity=".287"></stop><stop offset="1" stop-color="#fff" stop-opacity="0"></stop></linearGradient><path d="m214.1532 53.18h103.1068c83.5954 0 151.4868 67.17 151.4868 149.8778v102.0115c0 82.7073-67.8914 149.8777-151.4868 149.8777h-103.1068c-83.5953 0-151.4868-67.17-151.4868-149.8777v-102.0112c0-82.7075 67.8915-149.8778 151.4868-149.8778z" fill="#1d71b8" fill-rule="evenodd"></path><path d="m255.2951 175.1636q27.8474 0 32.3635 7.5958 2.7591 3.6758 2.76 14.4568v3.6754q-1.5058 20.5827-1.5057 30.6291a39.12 39.12 0 0 0 .5018 7.5959q1.0035 12.9871 6.7738 13.2318h.2507q3.7635 0 9.5335-5.636 6.7737-7.5956 17.5616-25.2381a236.446 236.446 0 0 0 14.8018-28.9135q2.7591-7.5965 6.0213-8.8214 1.2541-.49 16.3066-.49 17.06 0 32.8649-.49h1.255q9.2817 0 11.2893 3.92a13.4412 13.4412 0 0 1 .251 2.6955q0 6.3706-7.5263 19.6028-6.5224 9.5554-16.809 22.5426-13.2963 17.3968-16.8084 22.5426-4.5162 7.1065-4.5165 11.2719v.98q.7527 3.4308 11.29 14.4567 20.3214 19.6027 26.0918 26.2187 9.0309 11.2713 9.0311 16.6617a1.997 1.997 0 0 1 -.7523 1.2255q-1.2541 7.8405-23.5828 7.8409l-7.7773.245h-8.0285q-16.3071 0-18.0634-.245-11.7909-2.9408-24.8368-17.6422-9.0319-10.2914-10.0353-11.0264-7.2762-7.8414-12.5436-7.8408h-.5015q-5.7713.735-8.7813 7.8408a39.1678 39.1678 0 0 0 -2.2582 11.5163q-1.2542 12.2513-2.7591 13.2319-1.7566 2.6948-23.5828 3.92h-2.2583q-21.3241 0-43.4017-12.0063-20.8231-11.2722-39.8894-36.265-25.3389-33.5689-49.4232-83.3108-4.265-9.31-4.2648-12.7412a2.3528 2.3528 0 0 1 .5018-1.7156q1.2541-3.9207 23.5828-3.92h13.5469q15.3036 0 18.8162 2.2056 2.0068 1.7148 5.2681 9.0657a268.3515 268.3515 0 0 0 25.3386 45.5758q4.2654 5.3907 6.523 8.3315 4.767 5.1456 8.2789 5.1453h1.2546q5.0177-.98 6.7738-11.2712a79.8188 79.8188 0 0 0 1.5051-16.4173q0-24.2576-3.763-30.6291-2.7591-4.9-14.0494-8.0859 3.262-9.8013 26.5936-10.7813a81.6861 81.6861 0 0 1 10.7875-.7349z" fill="#fff" fill-rule="evenodd"></path><path d="m317.26 53.18h-103.1067c-83.5954 0-151.4869 67.17-151.4869 149.8776v49.1462c16.7256 36.0058 65.4513 87.5185 203.5648 18.5785 144.34-72.0613 160.866-47.6241 202.5151-26.1235v-41.6009c0-82.7072-67.8914-149.8779-151.4863-149.8779z" fill="url(#linear-gradient)" opacity=".4"></path></svg>